<!-- Created with Inkscape (http://www.inkscape.org/) -->
<svg width="340mm" height="220mm" version="1.1" viewBox="0 0 340 220" xmlns="http://www.w3.org/2000/svg"><g transform="translate(-80.737 265.84)"><g transform="translate(1.6248 -23.294)"><rect x="79.112" y="-242.55" width="340" height="220" fill="#f2f2f2" fill-rule="evenodd" stroke-width=".26458"/><rect x="206.74" y="-176.93" width="84.738" height="88.772" fill="#ffaaaa" fill-rule="evenodd" stroke-width=".26458"/><g fill="none" stroke="#000000" stroke-width=".52917"><path d="m199.73-127.74 0.16837-46.959"/><path d="m197.51-171.82 2.3914-2.8791"/><path d="m202-171.83-2.1049-2.8608"/></g><g transform="rotate(-90 202.75 -185.49)" fill="none" stroke="#000000" stroke-width=".52917"><path d="m199.73-127.74 0.16837-46.959"/><path d="m197.51-171.82 2.3914-2.8791"/><path d="m202-171.83-2.1049-2.8608"/></g><g transform="rotate(90 196.57 -83.607)" fill="none" stroke="#000000" stroke-width=".52917"><path d="m199.73-127.74 0.16837-46.959"/><path d="m197.51-171.82 2.3914-2.8791"/><path d="m202-171.83-2.1049-2.8608"/></g><g transform="rotate(180 248.9 -134.86)" fill="none" stroke="#000000" stroke-width=".52917"><path d="m199.73-127.74 0.16837-46.959"/><path d="m197.51-171.82 2.3914-2.8791"/><path d="m202-171.83-2.1049-2.8608"/></g><g font-family="'Noto Sans CJK HK'" stroke-width=".26458" word-spacing="0px"><g font-size="8.4667px"><text x="253.19464" y="-71.417763" style="font-variant-ligatures:none;line-height:1.25" xml:space="preserve"><tspan x="253.19464" y="-71.417763" font-size="8.4667px" stroke-width=".26458">x-axis</tspan></text><text transform="rotate(90)" x="-129.64687" y="-303.24139" style="font-variant-ligatures:none;line-height:1.25" xml:space="preserve"><tspan x="-129.64687" y="-303.24139" font-size="8.4667px" stroke-width=".26458">y-axis</tspan></text><text transform="rotate(90)" x="-162.51819" y="-191.24759" style="font-variant-ligatures:none;line-height:1.25" xml:space="preserve"><tspan x="-162.51819" y="-191.24759" font-size="8.4667px" stroke-width=".26458">y-axis</tspan></text><text x="225.87184" y="-187.44658" style="font-variant-ligatures:none;line-height:1.25" xml:space="preserve"><tspan x="225.87184" y="-187.44658" font-size="8.4667px" stroke-width=".26458">x-axis</tspan></text></g><text x="227.33647" y="-129.8517" font-size="9.8778px" style="font-variant-ligatures:none;line-height:1.25" xml:space="preserve"><tspan x="227.33647" y="-129.8517" stroke-width=".26458">rectangle</tspan></text></g></g></g></svg>
