<svg xmlns="http://www.w3.org/2000/svg"  viewBox="0 0 100 100" width="50px" height="50px"><circle cx="78" cy="14" r="1" fill="#f1bc19"/><circle cx="50" cy="50" r="38" fill="#f9dbd2"/><circle cx="84" cy="16" r="4" fill="#f1bc19"/><circle cx="14" cy="26" r="2" fill="#ee3e54"/><circle cx="78" cy="77" r="2" fill="#fbcd59"/><circle cx="17" cy="78" r="4" fill="#fbcd59"/><circle cx="24" cy="83" r="2" fill="#ee3e54"/><circle cx="64.483" cy="78.517" r="2.483" fill="#fff"/><circle cx="16" cy="48" r="1" fill="#fff"/><circle cx="86" cy="31" r="1" fill="#f1bc19"/><circle cx="84" cy="45" r="2" fill="#fff"/><g><circle cx="50" cy="50" r="24.25" fill="#78a0cf"/><path fill="#472b29" d="M50,74.95c-13.757,0-24.95-11.192-24.95-24.95c0-13.757,11.193-24.95,24.95-24.95 S74.95,36.243,74.95,50C74.95,63.758,63.757,74.95,50,74.95z M50,26.45c-12.985,0-23.55,10.564-23.55,23.55S37.015,73.55,50,73.55 S73.55,62.985,73.55,50S62.985,26.45,50,26.45z"/></g><g><path fill="#472b29" d="M70.889,57.17c-0.026,0-0.052-0.004-0.079-0.013l-2.848-0.942 c-0.131-0.043-0.202-0.185-0.159-0.315c0.043-0.131,0.183-0.204,0.316-0.159l2.848,0.942c0.131,0.043,0.202,0.185,0.159,0.315 C71.091,57.104,70.994,57.17,70.889,57.17z"/><path fill="#472b29" d="M67.71,63.275c-0.052,0-0.104-0.016-0.148-0.049l-2.415-1.779 c-0.111-0.082-0.135-0.238-0.053-0.35c0.083-0.11,0.239-0.135,0.35-0.053l2.415,1.779c0.111,0.082,0.135,0.238,0.053,0.35 C67.863,63.24,67.787,63.275,67.71,63.275z"/><path fill="#472b29" d="M62.816,68.104c-0.078,0-0.154-0.036-0.203-0.104l-1.751-2.437 c-0.081-0.111-0.055-0.268,0.057-0.349c0.112-0.08,0.268-0.056,0.349,0.058l1.751,2.437c0.081,0.111,0.055,0.268-0.057,0.349 C62.917,68.089,62.867,68.104,62.816,68.104z"/><path fill="#472b29" d="M56.673,71.2c-0.106,0-0.205-0.067-0.238-0.174l-0.91-2.858c-0.042-0.132,0.031-0.272,0.163-0.314 c0.131-0.042,0.272,0.031,0.314,0.162l0.91,2.858c0.042,0.132-0.031,0.272-0.163,0.314C56.724,71.196,56.698,71.2,56.673,71.2z"/><path fill="#472b29" d="M49.873,72.238c0,0-0.001,0-0.001,0c-0.138-0.001-0.25-0.113-0.249-0.252l0.018-3 c0.001-0.137,0.113-0.248,0.25-0.248c0,0,0.001,0,0.001,0c0.138,0.001,0.25,0.113,0.249,0.252l-0.018,3 C50.122,72.127,50.01,72.238,49.873,72.238z"/><path fill="#472b29" d="M43.08,71.139c-0.026,0-0.053-0.004-0.079-0.013c-0.131-0.043-0.202-0.185-0.159-0.315 l0.943-2.848c0.043-0.131,0.185-0.204,0.316-0.159c0.131,0.043,0.202,0.185,0.159,0.315l-0.943,2.848 C43.282,71.072,43.185,71.139,43.08,71.139z"/><path fill="#472b29" d="M36.975,67.961c-0.052,0-0.104-0.016-0.148-0.049c-0.111-0.082-0.135-0.238-0.053-0.35 l1.779-2.416c0.082-0.11,0.239-0.135,0.35-0.053s0.135,0.238,0.053,0.35l-1.779,2.416C37.127,67.926,37.052,67.961,36.975,67.961 z"/><path fill="#472b29" d="M32.146,63.066c-0.078,0-0.154-0.036-0.203-0.104c-0.081-0.111-0.055-0.268,0.057-0.349 l2.436-1.752c0.111-0.08,0.268-0.057,0.349,0.058c0.081,0.111,0.055,0.268-0.057,0.349l-2.436,1.752 C32.248,63.051,32.197,63.066,32.146,63.066z"/><path fill="#472b29" d="M29.05,56.923c-0.106,0-0.205-0.067-0.238-0.174c-0.042-0.132,0.031-0.272,0.163-0.314l2.858-0.91 c0.13-0.042,0.272,0.03,0.314,0.162s-0.031,0.272-0.163,0.314l-2.858,0.91C29.101,56.919,29.075,56.923,29.05,56.923z"/><path fill="#472b29" d="M31.011,50.141c0,0-0.001,0-0.001,0l-3-0.018c-0.138-0.001-0.25-0.113-0.249-0.251 c0.001-0.138,0.113-0.249,0.25-0.249c0,0,0.001,0,0.001,0l3,0.018c0.138,0.001,0.25,0.113,0.249,0.251 C31.26,50.03,31.148,50.141,31.011,50.141z"/><path fill="#472b29" d="M31.959,44.272c-0.026,0-0.052-0.004-0.079-0.013l-2.848-0.943 c-0.131-0.043-0.202-0.185-0.159-0.316c0.043-0.131,0.183-0.204,0.316-0.159l2.848,0.943c0.131,0.043,0.202,0.185,0.159,0.316 C32.162,44.206,32.064,44.272,31.959,44.272z"/><path fill="#472b29" d="M34.705,39.004c-0.052,0-0.104-0.016-0.148-0.049l-2.415-1.779 c-0.111-0.082-0.135-0.238-0.053-0.35c0.083-0.111,0.239-0.135,0.35-0.053l2.415,1.779c0.111,0.082,0.135,0.238,0.053,0.35 C34.857,38.969,34.781,39.004,34.705,39.004z"/><path fill="#472b29" d="M38.935,34.832c-0.078,0-0.154-0.036-0.203-0.104l-1.751-2.436 c-0.081-0.112-0.055-0.269,0.057-0.349c0.112-0.082,0.268-0.055,0.349,0.057l1.751,2.436c0.081,0.112,0.055,0.269-0.057,0.349 C39.037,34.817,38.986,34.832,38.935,34.832z"/><path fill="#472b29" d="M44.237,32.159c-0.106,0-0.205-0.068-0.238-0.174l-0.91-2.858 c-0.042-0.131,0.031-0.272,0.163-0.314c0.131-0.04,0.272,0.031,0.314,0.163l0.91,2.858c0.042,0.131-0.031,0.272-0.163,0.314 C44.288,32.155,44.262,32.159,44.237,32.159z"/><path fill="#472b29" d="M50.109,31.261c-0.16,0.014-0.251-0.113-0.25-0.251l0.018-3c0.001-0.138,0.113-0.249,0.25-0.249 c0,0,0.001,0,0.001,0c0.138,0.001,0.25,0.113,0.249,0.251l-0.018,3C50.358,31.15,50.247,31.261,50.109,31.261z"/><path fill="#472b29" d="M55.978,32.209c-0.026,0-0.052-0.004-0.079-0.013c-0.131-0.043-0.202-0.185-0.159-0.316 l0.943-2.848c0.043-0.131,0.183-0.203,0.316-0.159c0.131,0.043,0.202,0.185,0.159,0.316l-0.943,2.848 C56.18,32.143,56.083,32.209,55.978,32.209z"/><path fill="#472b29" d="M61.246,34.955c-0.052,0-0.104-0.016-0.148-0.049c-0.111-0.082-0.135-0.238-0.053-0.35 l1.779-2.415c0.083-0.111,0.238-0.134,0.35-0.053c0.111,0.082,0.135,0.238,0.053,0.35l-1.779,2.415 C61.398,34.919,61.322,34.955,61.246,34.955z"/><path fill="#472b29" d="M65.418,39.185c-0.078,0-0.154-0.036-0.203-0.104c-0.081-0.112-0.055-0.269,0.057-0.349 l2.436-1.751c0.112-0.081,0.268-0.055,0.349,0.057c0.081,0.112,0.055,0.269-0.057,0.349l-2.436,1.751 C65.52,39.17,65.469,39.185,65.418,39.185z"/><path fill="#472b29" d="M68.091,44.487c-0.106,0-0.205-0.068-0.238-0.174c-0.042-0.131,0.031-0.272,0.163-0.314 l2.858-0.91c0.132-0.04,0.272,0.031,0.314,0.163c0.042,0.131-0.031,0.272-0.163,0.314l-2.858,0.91 C68.142,44.483,68.116,44.487,68.091,44.487z"/><path fill="#472b29" d="M71.989,50.377c0,0-0.001,0-0.001,0l-3-0.018c-0.138-0.001-0.25-0.113-0.249-0.251 c0.001-0.138,0.113-0.249,0.25-0.249c0,0,0.001,0,0.001,0l3,0.018c0.138,0.001,0.25,0.113,0.249,0.251 C72.238,50.267,72.126,50.377,71.989,50.377z"/></g><g><polygon fill="#ee3e54" points="65.556,34.444 47.879,47.879 52.121,52.121"/></g><g><polygon fill="#fff" points="34.444,65.556 52.121,52.121 47.879,47.879"/></g><g><path fill="#472b29" d="M42.131,55.691c-0.053,0-0.106-0.017-0.151-0.051c-0.11-0.084-0.131-0.24-0.048-0.351l2.935-3.861 c0.084-0.109,0.24-0.13,0.351-0.048c0.11,0.084,0.131,0.24,0.048,0.351l-2.935,3.861C42.281,55.657,42.207,55.691,42.131,55.691z"/></g><g><path fill="#472b29" d="M46.256,50.264c-0.053,0-0.106-0.017-0.151-0.051c-0.11-0.084-0.131-0.241-0.048-0.351l1.623-2.135 c0.014-0.018,0.03-0.034,0.048-0.048l17.677-13.435c0.099-0.076,0.239-0.066,0.328,0.022c0.088,0.088,0.098,0.229,0.022,0.328 l-5.307,6.982c-0.084,0.109-0.24,0.131-0.351,0.048c-0.11-0.083-0.131-0.241-0.048-0.351l4.197-5.522l-16.19,12.305l-1.602,2.108 C46.406,50.23,46.331,50.264,46.256,50.264z"/></g><g><path fill="#472b29" d="M56.165,47.05c-0.053,0-0.106-0.017-0.151-0.051c-0.11-0.083-0.131-0.241-0.048-0.351l2.824-3.715 c0.084-0.109,0.24-0.13,0.351-0.048c0.11,0.083,0.131,0.241,0.048,0.351l-2.824,3.715C56.315,47.016,56.24,47.05,56.165,47.05z"/></g><g><path fill="#472b29" d="M34.444,65.807c-0.064,0-0.128-0.024-0.177-0.073c-0.088-0.088-0.098-0.229-0.022-0.328l6.401-8.423 c0.083-0.11,0.241-0.131,0.351-0.048c0.11,0.084,0.131,0.24,0.048,0.351l-5.292,6.963l16.191-12.306l2.722-3.582 c0.083-0.109,0.24-0.131,0.351-0.048c0.11,0.083,0.131,0.241,0.048,0.351l-2.743,3.609c-0.014,0.018-0.03,0.034-0.048,0.048 L34.595,65.756C34.55,65.79,34.497,65.807,34.444,65.807z"/></g><g><path fill="#472b29" d="M52.042,52.25c-0.064,0-0.128-0.024-0.177-0.073l-2.271-2.271c-0.098-0.098-0.098-0.256,0-0.354 s0.256-0.098,0.354,0l2.271,2.271c0.098,0.098,0.098,0.256,0,0.354C52.169,52.226,52.105,52.25,52.042,52.25z"/></g><g><path fill="#472b29" d="M48.927,49.135c-0.064,0-0.128-0.024-0.177-0.073l-0.886-0.885c-0.098-0.098-0.098-0.256,0-0.354 s0.256-0.098,0.354,0l0.886,0.885c0.098,0.098,0.098,0.256,0,0.354C49.055,49.111,48.991,49.135,48.927,49.135z"/></g></svg>