<?xml version="1.0" encoding="UTF-8"?>
<!-- Created with Inkscape (http://www.inkscape.org/) -->
<svg width="32" height="32" version="1.1" viewBox="0 0 8.4667 8.4667" xmlns="http://www.w3.org/2000/svg" xmlns:xlink="http://www.w3.org/1999/xlink">
 <defs>
  <linearGradient id="linearGradient12553">
   <stop stop-color="#d45500" offset="0"/>
   <stop stop-color="#d45500" stop-opacity="0" offset="1"/>
  </linearGradient>
  <linearGradient id="linearGradient8620" x1="-426.87" x2="-179.04" y1="710.65" y2="383.39" gradientUnits="userSpaceOnUse" xlink:href="#linearGradient12553"/>
  <linearGradient id="linearGradient12555" x1="-685.79" x2="-448.49" y1="287.47" y2="710.6" gradientUnits="userSpaceOnUse" xlink:href="#linearGradient12553"/>
  <linearGradient id="linearGradient14692" x1="-608.28" x2="-812.38" y1="550.99" y2="546.8" gradientUnits="userSpaceOnUse" xlink:href="#linearGradient12553"/>
 </defs>
 <g transform="translate(168.77 46.305)">
  <g transform="matrix(1.0357 0 0 1.0357 7.6733 -4.7)">
   <g fill="#a02c2c">
    <path transform="scale(.26458)" d="m-643.41 284.29c-22.539 0-40.686 6.6762-40.686 14.969v288.24c0 8.2926 18.146 14.969 40.686 14.969 22.539 0 40.684-6.6762 40.684-14.969v-39.4h75.119v145.1c0 10.491 18.144 18.938 40.684 18.938 22.539 0 40.686-8.4465 40.686-18.938v-280.3c0-10.491-18.146-18.938-40.686-18.938-22.539 0-40.684 8.4465-40.684 18.938v53.832h-75.119v-167.47c0-8.2926-18.144-14.969-40.684-14.969z"/>
    <path transform="scale(.26458)" d="m-757.66 383.22c-22.539 0-40.686 7.6099-40.686 17.062v229.39h-6.1035c-4.955 0-8.9434 18.146-8.9434 40.686 0 22.539 3.9884 40.686 8.9434 40.686h186.81c4.955 0 8.9453-18.146 8.9453-40.686 0-22.539-3.9903-40.686-8.9453-40.686h-99.334v-229.39c0-9.4526-18.146-17.062-40.686-17.062z"/>
    <path transform="scale(.26458)" d="m-379.42 381.75c-10.168 0-18.354 18.146-18.354 40.686 0 21.804 7.6607 39.494 17.365 40.625l-47.545 82.352c-1.0489 1.8167-0.90539 4.1913 0.22656 6.9082-0.99721 2.5674-1.0807 4.8143-0.0781 6.5508l42.17 73.041c-7.09 5.623-12.139 20.607-12.139 38.305 0 22.539 8.1859 40.686 18.354 40.686h184.5c10.168 0 18.354-18.146 18.354-40.686 0-22.539-8.1859-40.686-18.354-40.686h-98.131l-44.756-77.52 51.322-88.893h91.564c10.168 0 18.354-18.144 18.354-40.684 0-22.539-8.1859-40.686-18.354-40.686z"/>
   </g>
   <path transform="scale(.26458)" d="m-379.42 381.75c-10.168 0-18.354 18.146-18.354 40.686 0 21.804 7.6607 39.494 17.365 40.625l-47.545 82.352c-1.0489 1.8167-0.90539 4.1913 0.22656 6.9082-0.99721 2.5674-1.0807 4.8143-0.0781 6.5508l42.17 73.041c-7.09 5.623-12.139 20.607-12.139 38.305 0 22.539 8.1859 40.686 18.354 40.686h184.5c10.168 0 18.354-18.146 18.354-40.686 0-22.539-8.1859-40.686-18.354-40.686h-98.131l-44.756-77.52 51.322-88.893h91.564c10.168 0 18.354-18.144 18.354-40.684 0-22.539-8.1859-40.686-18.354-40.686z" fill="url(#linearGradient8620)"/>
   <path transform="scale(.26458)" d="m-643.41 284.29c-22.539 0-40.686 6.6762-40.686 14.969v288.24c0 8.2926 18.146 14.969 40.686 14.969 22.539 0 40.684-6.6762 40.684-14.969v-39.4h75.119v145.1c0 10.491 18.144 18.938 40.684 18.938 22.539 0 40.686-8.4465 40.686-18.938v-280.3c0-10.491-18.146-18.938-40.686-18.938-22.539 0-40.684 8.4465-40.684 18.938v53.832h-75.119v-167.47c0-8.2926-18.144-14.969-40.684-14.969z" fill="url(#linearGradient12555)"/>
   <path transform="scale(.26458)" d="m-757.66 383.22c-22.539 0-40.686 7.6099-40.686 17.062v229.39h-6.1035c-4.955 0-8.9434 18.146-8.9434 40.686 0 22.539 3.9884 40.686 8.9434 40.686h186.81c4.955 0 8.9453-18.146 8.9453-40.686 0-22.539-3.9903-40.686-8.9453-40.686h-99.334v-229.39c0-9.4526-18.146-17.062-40.686-17.062z" fill="url(#linearGradient14692)"/>
  </g>
  <g transform="translate(41.07 3.4097)">
   <rect x="-209.84" y="-49.715" width="8.4667" height="8.4667" rx="0" ry="0" fill-opacity="0" stroke-width="4.165"/>
   <g transform="matrix(.049175 0 0 .049175 -199.17 -52.166)">
    <g fill="#a02c2c">
     <path transform="scale(.26458)" d="m-643.41 284.29c-22.539 0-40.686 6.6762-40.686 14.969v288.24c0 8.2926 18.146 14.969 40.686 14.969 22.539 0 40.684-6.6762 40.684-14.969v-39.4h75.119v145.1c0 10.491 18.144 18.938 40.684 18.938 22.539 0 40.686-8.4465 40.686-18.938v-280.3c0-10.491-18.146-18.938-40.686-18.938-22.539 0-40.684 8.4465-40.684 18.938v53.832h-75.119v-167.47c0-8.2926-18.144-14.969-40.684-14.969z"/>
     <path transform="scale(.26458)" d="m-757.66 383.22c-22.539 0-40.686 7.6099-40.686 17.062v229.39h-6.1035c-4.955 0-8.9434 18.146-8.9434 40.686 0 22.539 3.9884 40.686 8.9434 40.686h186.81c4.955 0 8.9453-18.146 8.9453-40.686 0-22.539-3.9903-40.686-8.9453-40.686h-99.334v-229.39c0-9.4526-18.146-17.062-40.686-17.062z"/>
     <path transform="scale(.26458)" d="m-379.42 381.75c-10.168 0-18.354 18.146-18.354 40.686 0 21.804 7.6607 39.494 17.365 40.625l-47.545 82.352c-1.0489 1.8167-0.90539 4.1913 0.22656 6.9082-0.99721 2.5674-1.0807 4.8143-0.0781 6.5508l42.17 73.041c-7.09 5.623-12.139 20.607-12.139 38.305 0 22.539 8.1859 40.686 18.354 40.686h184.5c10.168 0 18.354-18.146 18.354-40.686 0-22.539-8.1859-40.686-18.354-40.686h-98.131l-44.756-77.52 51.322-88.893h91.564c10.168 0 18.354-18.144 18.354-40.684 0-22.539-8.1859-40.686-18.354-40.686z"/>
    </g>
    <path transform="scale(.26458)" d="m-379.42 381.75c-10.168 0-18.354 18.146-18.354 40.686 0 21.804 7.6607 39.494 17.365 40.625l-47.545 82.352c-1.0489 1.8167-0.90539 4.1913 0.22656 6.9082-0.99721 2.5674-1.0807 4.8143-0.0781 6.5508l42.17 73.041c-7.09 5.623-12.139 20.607-12.139 38.305 0 22.539 8.1859 40.686 18.354 40.686h184.5c10.168 0 18.354-18.146 18.354-40.686 0-22.539-8.1859-40.686-18.354-40.686h-98.131l-44.756-77.52 51.322-88.893h91.564c10.168 0 18.354-18.144 18.354-40.684 0-22.539-8.1859-40.686-18.354-40.686z" fill="url(#linearGradient8620)"/>
    <path transform="scale(.26458)" d="m-643.41 284.29c-22.539 0-40.686 6.6762-40.686 14.969v288.24c0 8.2926 18.146 14.969 40.686 14.969 22.539 0 40.684-6.6762 40.684-14.969v-39.4h75.119v145.1c0 10.491 18.144 18.938 40.684 18.938 22.539 0 40.686-8.4465 40.686-18.938v-280.3c0-10.491-18.146-18.938-40.686-18.938-22.539 0-40.684 8.4465-40.684 18.938v53.832h-75.119v-167.47c0-8.2926-18.144-14.969-40.684-14.969z" fill="url(#linearGradient12555)"/>
    <path transform="scale(.26458)" d="m-757.66 383.22c-22.539 0-40.686 7.6099-40.686 17.062v229.39h-6.1035c-4.955 0-8.9434 18.146-8.9434 40.686 0 22.539 3.9884 40.686 8.9434 40.686h186.81c4.955 0 8.9453-18.146 8.9453-40.686 0-22.539-3.9903-40.686-8.9453-40.686h-99.334v-229.39c0-9.4526-18.146-17.062-40.686-17.062z" fill="url(#linearGradient14692)"/>
   </g>
  </g>
 </g>
</svg>
